<svg xmlns="http://www.w3.org/2000/svg" width="34" height="38">
    <path fill="#6F6F6F" fill-rule="evenodd" d="M11.45 32.171v-1.739h22.559v1.739H11.45zm0-11.219h22.559v1.741H11.45v-1.741zm-.561-9.96h22.559v1.74H10.889v-1.74zm0-9.19h22.559v1.74H10.889v-1.74zM-.013 29.108h8.598v8.884H-.013v-8.884zm1.499 7.334h5.6v-5.786h-5.6v5.786zM-.013 19.42h8.598v8.884H-.013V19.42zm1.499 7.335h5.6v-5.787h-5.6v5.787zM-.013 9.738h8.598v8.883H-.013V9.738zm1.499 7.334h5.6v-5.785h-5.6v5.785zM-.013.017h8.598v8.881H-.013V.017zm1.499 7.334h5.6V1.564h-5.6v5.787zm25.596-.712H10.889V4.897h16.193v1.742zm0 9.187H10.889v-1.739h16.193v1.739zm.562 9.963H11.45v-1.741h16.194v1.741zm0 9.478H11.45v-1.741h16.194v1.741z"/>
</svg>
