<svg xmlns="http://www.w3.org/2000/svg" width="38" height="38">
    <path fill="#ED7E72" fill-rule="evenodd"
          d="M37.258 38h-9.495a.742.742 0 0 1-.742-.742v-9.5c0-.41.332-.742.742-.742H29.5a.742.742 0 0 1 0 1.484h-.995v8.015h8.011V28.5h-.389a.742.742 0 0 1 0-1.485h1.131c.41 0 .742.333.742.743v9.5c0 .41-.332.742-.742.742zm-3.97-10.767a.748.748 0 0 1 .218.525.747.747 0 0 1-.742.742.746.746 0 0 1-.525-1.267.748.748 0 0 1 .525-.218c.195 0 .386.08.524.218zm3.97-2.741h-9.495a.742.742 0 0 1-.742-.742v-9.5c0-.41.332-.742.742-.742h9.495c.41 0 .742.332.742.742v9.5c0 .41-.332.742-.742.742zm-.742-9.5h-8.011v8.016h8.011v-8.016zm.742-4.008h-9.495a.742.742 0 0 1-.742-.742v-9.5c0-.41.332-.742.742-.742h9.495c.41 0 .742.332.742.742v9.5c0 .41-.332.742-.742.742zm-.742-9.5h-8.011V9.5h8.011V1.484zM23.748 38h-9.496a.743.743 0 0 1-.742-.742v-9.5c0-.41.333-.743.742-.743h9.496c.409 0 .741.333.741.743v9.5a.742.742 0 0 1-.741.742zm-.742-9.5h-8.012v8.015h8.012V28.5zm.742-4.008h-9.496a.742.742 0 0 1-.742-.742v-9.5c0-.41.333-.742.742-.742h9.496c.409 0 .741.332.741.742v9.5c0 .41-.332.742-.741.742zm-.742-9.5h-8.012v8.016h8.012v-8.016zm.742-4.008h-9.496a.742.742 0 0 1-.742-.742v-9.5c0-.41.333-.742.742-.742h9.496c.409 0 .741.332.741.742v9.5c0 .41-.332.742-.741.742zm-.742-9.5h-8.012V9.5h8.012V1.484zM10.237 38H.742A.742.742 0 0 1 0 37.258v-9.5c0-.41.332-.743.742-.743h9.495c.41 0 .742.333.742.743v9.5a.742.742 0 0 1-.742.742zm-.742-9.5H1.484v8.015h8.011V28.5zm.742-4.008H.742A.742.742 0 0 1 0 23.75v-9.5c0-.41.332-.742.742-.742h9.495c.41 0 .742.332.742.742v9.5c0 .41-.332.742-.742.742zm-.742-9.5H1.484v8.016h8.011v-8.016zM5.761 9.717c.138.138.217.33.217.525a.748.748 0 0 1-.217.525.746.746 0 0 1-1.049 0 .748.748 0 0 1-.217-.525c0-.195.079-.387.217-.525a.746.746 0 0 1 1.049 0zm4.476 1.267H8.5a.742.742 0 0 1 0-1.484h.995V1.484H1.484V9.5h.389a.742.742 0 1 1 0 1.484H.742A.742.742 0 0 1 0 10.242v-9.5C0 .332.332 0 .742 0h9.495c.41 0 .742.332.742.742v9.5c0 .41-.332.742-.742.742z"/>
</svg>
