<?xml version="1.0" encoding="utf-8"?><svg xmlns="http://www.w3.org/2000/svg" xmlns:xlink="http://www.w3.org/1999/xlink"><symbol viewBox="0 0 18.164 13.922" id="check" xmlns="http://www.w3.org/2000/svg"><path d="M17.836 3.516L9.352 12l-1.594 1.594a1.136 1.136 0 0 1-1.594 0L4.57 12 .328 7.758a1.136 1.136 0 0 1 0-1.594L1.922 4.57a1.136 1.136 0 0 1 1.594 0l3.445 3.457L14.649.328a1.132 1.132 0 0 1 1.593 0l1.594 1.594a1.136 1.136 0 0 1 0 1.594z"/></symbol><symbol viewBox="0 0 256 512" id="chevron-left" xmlns="http://www.w3.org/2000/svg"><path d="M231.293 473.899l19.799-19.799c4.686-4.686 4.686-12.284 0-16.971L70.393 256 251.092 74.87c4.686-4.686 4.686-12.284 0-16.971L231.293 38.1c-4.686-4.686-12.284-4.686-16.971 0L4.908 247.515c-4.686 4.686-4.686 12.284 0 16.971L214.322 473.9c4.687 4.686 12.285 4.686 16.971-.001z"/></symbol><symbol viewBox="0 0 256 512" id="chevron-right" xmlns="http://www.w3.org/2000/svg"><path d="M24.707 38.101L4.908 57.899c-4.686 4.686-4.686 12.284 0 16.971L185.607 256 4.908 437.13c-4.686 4.686-4.686 12.284 0 16.971L24.707 473.9c4.686 4.686 12.284 4.686 16.971 0l209.414-209.414c4.686-4.686 4.686-12.284 0-16.971L41.678 38.101c-4.687-4.687-12.285-4.687-16.971 0z"/></symbol><symbol viewBox="0 0 512 512" id="envelope" xmlns="http://www.w3.org/2000/svg"><path d="M464 64H48C21.5 64 0 85.5 0 112v288c0 26.5 21.5 48 48 48h416c26.5 0 48-21.5 48-48V112c0-26.5-21.5-48-48-48zM48 96h416c8.8 0 16 7.2 16 16v41.4c-21.9 18.5-53.2 44-150.6 121.3-16.9 13.4-50.2 45.7-73.4 45.3-23.2.4-56.6-31.9-73.4-45.3C85.2 197.4 53.9 171.9 32 153.4V112c0-8.8 7.2-16 16-16zm416 320H48c-8.8 0-16-7.2-16-16V195c22.8 18.7 58.8 47.6 130.7 104.7 20.5 16.4 56.7 52.5 93.3 52.3 36.4.3 72.3-35.5 93.3-52.3 71.9-57.1 107.9-86 130.7-104.7v205c0 8.8-7.2 16-16 16z"/></symbol><symbol viewBox="0 0 34 38" id="icon-list" xmlns="http://www.w3.org/2000/svg"><path fill-rule="evenodd" d="M11.45 32.171v-1.739h22.559v1.739H11.45zm0-11.219h22.559v1.741H11.45v-1.741zm-.561-9.96h22.559v1.74H10.889v-1.74zm0-9.19h22.559v1.74H10.889v-1.74zM-.013 29.108h8.598v8.884H-.013v-8.884zm1.499 7.334h5.6v-5.786h-5.6v5.786zM-.013 19.42h8.598v8.884H-.013V19.42zm1.499 7.335h5.6v-5.787h-5.6v5.787zM-.013 9.738h8.598v8.883H-.013V9.738zm1.499 7.334h5.6v-5.785h-5.6v5.785zM-.013.017h8.598v8.881H-.013V.017zm1.499 7.334h5.6V1.564h-5.6v5.787zm25.596-.712H10.889V4.897h16.193v1.742zm0 9.187H10.889v-1.739h16.193v1.739zm.562 9.963H11.45v-1.741h16.194v1.741zm0 9.478H11.45v-1.741h16.194v1.741z"/></symbol><symbol viewBox="0 0 38 38" id="icon-tile" xmlns="http://www.w3.org/2000/svg"><path fill-rule="evenodd" d="M37.258 38h-9.495a.742.742 0 0 1-.742-.742v-9.5c0-.41.332-.742.742-.742H29.5a.742.742 0 0 1 0 1.484h-.995v8.015h8.011V28.5h-.389a.742.742 0 0 1 0-1.485h1.131c.41 0 .742.333.742.743v9.5c0 .41-.332.742-.742.742zm-3.97-10.767a.748.748 0 0 1 .218.525.747.747 0 0 1-.742.742.746.746 0 0 1-.525-1.267.748.748 0 0 1 .525-.218c.195 0 .386.08.524.218zm3.97-2.741h-9.495a.742.742 0 0 1-.742-.742v-9.5c0-.41.332-.742.742-.742h9.495c.41 0 .742.332.742.742v9.5c0 .41-.332.742-.742.742zm-.742-9.5h-8.011v8.016h8.011v-8.016zm.742-4.008h-9.495a.742.742 0 0 1-.742-.742v-9.5c0-.41.332-.742.742-.742h9.495c.41 0 .742.332.742.742v9.5c0 .41-.332.742-.742.742zm-.742-9.5h-8.011V9.5h8.011V1.484zM23.748 38h-9.496a.743.743 0 0 1-.742-.742v-9.5c0-.41.333-.743.742-.743h9.496c.409 0 .741.333.741.743v9.5a.742.742 0 0 1-.741.742zm-.742-9.5h-8.012v8.015h8.012V28.5zm.742-4.008h-9.496a.742.742 0 0 1-.742-.742v-9.5c0-.41.333-.742.742-.742h9.496c.409 0 .741.332.741.742v9.5c0 .41-.332.742-.741.742zm-.742-9.5h-8.012v8.016h8.012v-8.016zm.742-4.008h-9.496a.742.742 0 0 1-.742-.742v-9.5c0-.41.333-.742.742-.742h9.496c.409 0 .741.332.741.742v9.5c0 .41-.332.742-.741.742zm-.742-9.5h-8.012V9.5h8.012V1.484zM10.237 38H.742A.742.742 0 0 1 0 37.258v-9.5c0-.41.332-.743.742-.743h9.495c.41 0 .742.333.742.743v9.5a.742.742 0 0 1-.742.742zm-.742-9.5H1.484v8.015h8.011V28.5zm.742-4.008H.742A.742.742 0 0 1 0 23.75v-9.5c0-.41.332-.742.742-.742h9.495c.41 0 .742.332.742.742v9.5c0 .41-.332.742-.742.742zm-.742-9.5H1.484v8.016h8.011v-8.016zM5.761 9.717c.138.138.217.33.217.525a.748.748 0 0 1-.217.525.746.746 0 0 1-1.049 0 .748.748 0 0 1-.217-.525c0-.195.079-.387.217-.525a.746.746 0 0 1 1.049 0zm4.476 1.267H8.5a.742.742 0 0 1 0-1.484h.995V1.484H1.484V9.5h.389a.742.742 0 1 1 0 1.484H.742A.742.742 0 0 1 0 10.242v-9.5C0 .332.332 0 .742 0h9.495c.41 0 .742.332.742.742v9.5c0 .41-.332.742-.742.742z"/></symbol></svg>